<svg width="15" height="14" viewBox="0 0 15 14" fill="none" xmlns="http://www.w3.org/2000/svg">
<path d="M15 6.98353C14.9023 6.70399 14.72 6.56718 14.4729 6.50321C13.7877 6.32573 13.1063 6.1268 12.4211 5.94894C12.2933 5.91567 12.246 5.848 12.2225 5.7049C11.9855 4.27172 11.7431 2.84002 11.5025 1.40758C11.4239 0.938728 11.1459 0.75311 10.7638 0.915433C8.59448 1.8365 6.42423 1.83946 4.25335 0.923938C3.84592 0.752 3.57848 0.926526 3.49518 1.422C3.25529 2.84816 3.01165 4.27357 2.78022 5.70195C2.7514 5.8798 2.67499 5.91752 2.55004 5.95116C1.8357 6.14381 1.12137 6.33867 0.410167 6.54647C0.0876045 6.64076 -0.0689793 6.97983 0.0290422 7.3189C0.11485 7.61581 0.36006 7.77296 0.626565 7.69716C1.25822 7.51746 1.88581 7.3152 2.52154 7.15842C4.60661 6.64446 6.71453 6.47215 8.84125 6.60563C10.688 6.72137 12.5 7.07855 14.2797 7.67054C14.6276 7.78627 14.8033 7.68902 15 7.27859L15 6.98353Z" fill="black"/>
<path d="M6.42297 10.692H8.54499C8.60324 11.0633 8.62641 11.4282 8.71942 11.7666C9.07925 13.0759 10.2311 13.9019 11.3491 13.6797C12.5563 13.4393 13.4072 12.279 13.4116 10.8673C13.4154 9.58387 12.706 8.4709 11.6563 8.11371C10.6338 7.76577 9.54462 8.26088 8.9734 9.34353C8.9092 9.46555 8.84375 9.50437 8.72662 9.50363C7.90895 9.49772 7.09127 9.49809 6.27359 9.50363C6.15771 9.50437 6.09101 9.46888 6.02618 9.34538C5.48566 8.31523 4.45784 7.80645 3.48013 8.0723C2.46485 8.34851 1.71481 9.32985 1.598 10.5341C1.44925 12.0679 2.36996 13.4623 3.67931 13.6856C4.94983 13.9026 6.17243 12.8351 6.37724 11.3243C6.4048 11.1198 6.40794 10.9109 6.42297 10.692Z" fill="black"/>
</svg>
