<svg width="26" height="26" viewBox="0 0 26 26" fill="none" xmlns="http://www.w3.org/2000/svg">
<circle cx="13" cy="13" r="13" fill="#1F2ADE"/>
<path d="M13.0437 9.45455V16H11.8484L9.00071 11.8803H8.95277V16H7.56889V9.45455H8.78338L11.6087 13.571H11.6662V9.45455H13.0437ZM17.7378 11.337C17.7123 11.0792 17.6025 10.8789 17.4086 10.7362C17.2148 10.5934 16.9516 10.522 16.6192 10.522C16.3934 10.522 16.2027 10.554 16.0471 10.6179C15.8916 10.6797 15.7723 10.766 15.6892 10.8768C15.6082 10.9876 15.5677 11.1133 15.5677 11.2539C15.5635 11.3711 15.588 11.4734 15.6412 11.5607C15.6966 11.6481 15.7723 11.7237 15.8682 11.7876C15.964 11.8494 16.0748 11.9038 16.2006 11.9506C16.3263 11.9954 16.4605 12.0337 16.6032 12.0657L17.1913 12.2063C17.4768 12.2702 17.7389 12.3555 17.9775 12.462C18.2162 12.5685 18.4229 12.6996 18.5976 12.8551C18.7723 13.0107 18.9076 13.1939 19.0035 13.4048C19.1015 13.6158 19.1515 13.8576 19.1537 14.1303C19.1515 14.5309 19.0493 14.8782 18.8469 15.1722C18.6466 15.4641 18.3568 15.6911 17.9775 15.853C17.6004 16.0128 17.1455 16.0927 16.6128 16.0927C16.0844 16.0927 15.6242 16.0117 15.2322 15.8498C14.8422 15.6879 14.5376 15.4482 14.3181 15.1307C14.1008 14.8111 13.9868 14.4158 13.9761 13.945H15.3153C15.3302 14.1644 15.393 14.3477 15.5038 14.4947C15.6167 14.6396 15.767 14.7493 15.9545 14.8239C16.1441 14.8963 16.3582 14.9325 16.5969 14.9325C16.8312 14.9325 17.0347 14.8984 17.2073 14.8303C17.382 14.7621 17.5173 14.6673 17.6132 14.5458C17.7091 14.4244 17.757 14.2848 17.757 14.1271C17.757 13.9801 17.7133 13.8565 17.626 13.7564C17.5407 13.6562 17.415 13.571 17.2488 13.5007C17.0848 13.4304 16.8834 13.3665 16.6448 13.3089L15.9321 13.13C15.3802 12.9957 14.9445 12.7859 14.6249 12.5004C14.3053 12.2148 14.1466 11.8303 14.1487 11.3466C14.1466 10.9503 14.252 10.604 14.4651 10.3079C14.6803 10.0117 14.9754 9.78054 15.3504 9.61435C15.7254 9.44815 16.1515 9.36506 16.6288 9.36506C17.1146 9.36506 17.5386 9.44815 17.9008 9.61435C18.2652 9.78054 18.5486 10.0117 18.751 10.3079C18.9534 10.604 19.0578 10.9471 19.0642 11.337H17.7378Z" fill="white"/>
</svg>
