<?xml version="1.0" encoding="utf-8"?>
<!-- Generator: Adobe Illustrator 28.3.0, SVG Export Plug-In . SVG Version: 6.00 Build 0)  -->
<svg version="1.1" id="Слой_1" xmlns="http://www.w3.org/2000/svg" xmlns:xlink="http://www.w3.org/1999/xlink" x="0px" y="0px"
	 viewBox="0 0 408.88 287.99" style="enable-background:new 0 0 408.88 287.99;" xml:space="preserve">
<style type="text/css">
	.st0{display:none;}
	.st1{display:inline;}
</style>
<g>
	<path d="M12.44,141c34.34-56.69,81.69-96.61,147.2-111.97c42.99-10.08,85.14-5.69,125.77,11.78c2.95,1.27,4.55,0.85,6.69-1.32
		c11.74-11.94,23.64-23.74,35.48-35.57c3.47-3.46,7.55-4.78,12.33-3.33c4.46,1.35,7.22,4.42,8.22,8.9c1.08,4.85-0.84,8.7-4.27,12.11
		c-16.22,16.13-32.37,32.33-48.54,48.5c-70.88,70.88-141.78,141.75-212.62,212.67c-3.46,3.46-7.16,5.96-12.23,5.04
		c-4.66-0.85-7.92-3.59-9.38-8.17c-1.51-4.75-0.3-8.88,3.17-12.36c9.97-10.01,19.96-19.99,29.96-29.96
		c0.97-0.97,2.12-1.76,3.61-2.99C62.16,211.63,33.33,183.16,12.44,147C12.44,145,12.44,143,12.44,141z M270.14,60.81
		c-0.49-0.27-0.9-0.56-1.35-0.73c-40.68-15.43-81.78-16.47-122.82-2.17c-44.93,15.65-78.99,45.43-106.04,83.92
		c-1.52,2.16-0.58,3.32,0.5,4.88c14.76,21.21,32.44,39.61,53.21,54.97c6.98,5.16,14.38,9.74,21.22,14.34
		c10.56-10.54,20.54-20.51,30.71-30.67c-9.49-13.87-14.2-29.4-12.94-46.45c1.27-17.17,7.88-32.11,19.81-44.6
		c10.87-11.38,24.1-18.5,39.59-21.21c19.64-3.43,37.62,1.07,53.82,12.01C254.02,76.94,261.96,68.99,270.14,60.81z M163.28,167.6
		c21.69-21.69,43.22-43.2,64.72-64.7c-13.45-9.68-38.97-10.7-56.88,6.62C153.37,126.68,152.92,152.37,163.28,167.6z"/>
	<path d="M396.44,147c-33.01,54.66-78.48,93.65-140.95,110.51c-36.39,9.82-72.91,8.56-109.1-1.97c-0.46-0.14-0.88-0.43-1.8-0.89
		c6.35-6.31,12.47-12.47,18.73-18.5c0.62-0.6,2.12-0.66,3.11-0.46c59.87,12.52,112.38-3.21,158.91-41.54
		c16.68-13.74,30.92-29.78,43.27-47.52c1.36-1.95,1.39-3.25,0.02-5.21c-14.18-20.18-30.85-37.98-50.37-53.08
		c-1.27-0.98-2.53-1.98-3.66-2.86c5.82-5.77,11.48-11.37,17.53-17.36c25.73,20.1,47.85,43.96,64.32,72.87
		C396.44,143,396.44,145,396.44,147z"/>
	<path d="M185.59,213.64c7.62-7.58,14.46-14.46,21.43-21.21c0.78-0.76,2.27-0.95,3.46-1.09c21.33-2.51,38.77-19.94,41.29-41.27
		c0.14-1.2,0.33-2.69,1.08-3.47c6.76-6.97,13.64-13.8,20.63-20.81c6.44,18.03,2.83,46.14-15.13,65.76
		C238.89,212.81,214.79,219.79,185.59,213.64z"/>
</g>
<g class="st0">
	<path class="st1" d="M0,141.63c1.97-3.28,3.59-6.84,5.95-9.8c28.79-36.09,62.21-67.03,102.37-90.18
		c26.44-15.24,54.66-25.47,85.36-27.53c28.12-1.89,55.03,3.64,80.83,14.67c36.97,15.81,68.59,39.44,96.71,67.8
		c11.68,11.78,22.35,24.59,33.14,37.22c6.13,7.17,5.91,13.07,0.05,20.48c-29.03,36.78-62.76,68.34-103.52,91.84
		c-32,18.46-66.15,29.61-103.63,27.95c-25.73-1.14-50.01-8.08-73.05-19.39C75.85,230.93,37.13,195.61,4,153.7
		c-1.69-2.14-2.68-4.84-4-7.28C0,144.82,0,143.22,0,141.63z M30.47,144.3c7.92,8.55,15.37,17.05,23.3,25.07
		c26.27,26.59,55.3,49.44,89.87,64.42c17.3,7.5,35.29,12.42,54.27,13.33c28.87,1.38,55.46-6.63,80.75-19.66
		c28.53-14.69,53.23-34.58,75.68-57.32c8.19-8.3,15.89-17.1,23.97-25.85c-1.48-1.76-2.5-3.14-3.69-4.35
		c-12.53-12.85-24.5-26.31-37.75-38.36c-24.77-22.5-52.29-40.9-84.15-52.19c-32.18-11.4-64.29-11.42-96.47-0.11
		c-27.7,9.74-52.04,25.19-74.59,43.7C63.11,108.22,46.38,125.28,30.47,144.3z"/>
	<path class="st1" d="M204.67,63.25c44.78,0.26,80.94,36.76,80.5,81.24c-0.45,44.71-36.63,80.56-81.04,80.3
		c-44.79-0.26-80.94-36.75-80.5-81.24C124.08,98.82,160.24,62.99,204.67,63.25z M204.43,197.9c29.69-0.05,53.73-24.11,53.8-53.82
		c0.07-29.65-23.89-53.73-53.68-53.94c-29.64-0.21-54.23,24.37-54.04,54.02C150.71,173.92,174.82,197.95,204.43,197.9z"/>
</g>
</svg>
