<svg width="9" height="13" viewBox="0 0 9 13" fill="none" xmlns="http://www.w3.org/2000/svg">
<path d="M5.48347 0C5.60618 0.0795232 5.63157 0.190259 5.61972 0.327321C5.49532 1.78886 5.37515 3.25068 5.25386 4.71249C5.23496 4.94129 5.21465 5.16982 5.19349 5.4168C5.26091 5.4168 5.31563 5.4168 5.37008 5.4168C6.48093 5.4168 7.59151 5.41545 8.70236 5.41979C8.78022 5.42006 8.87218 5.4453 8.93198 5.49036C9.0293 5.56364 9.0183 5.67383 8.9238 5.80492C8.54129 6.33444 8.15822 6.86369 7.77514 7.39294C6.47049 9.19511 5.16585 10.9975 3.8612 12.7997C3.83722 12.8331 3.81437 12.8673 3.78898 12.8996C3.72297 12.9826 3.63891 13.0228 3.53116 12.9867C3.41973 12.9493 3.36783 12.8692 3.37629 12.7565C3.39632 12.4911 3.41889 12.2257 3.44089 11.9602C3.52213 10.9796 3.60365 9.99929 3.68517 9.01869C3.72213 8.57331 3.75965 8.12819 3.79632 7.68281C3.79857 7.65621 3.7966 7.62907 3.7966 7.58347H3.63045C2.52919 7.58347 1.42764 7.58157 0.326374 7.58591C0.188716 7.58646 0.0806767 7.55633 0 7.44804C0 7.39376 0 7.33975 0 7.28546C0.00987302 7.27678 0.0217206 7.26945 0.029337 7.25941C1.73427 4.90357 3.43863 2.54746 5.14441 0.192158C5.19405 0.123492 5.25781 0.0640528 5.31479 0C5.37092 0 5.42734 0 5.48347 0Z" fill="#1F2ADE"/>
</svg>
