<?xml version="1.0" encoding="UTF-8"?>
<svg id="_Слой_2" data-name="Слой 2" xmlns="http://www.w3.org/2000/svg" viewBox="0 0 501.67 500.28">
  <defs>
    <style>
      .cls-1 {
        fill: #fff;
        stroke-width: 0px;
      }
    </style>
  </defs>
  <g id="_Слой_1-2" data-name="Слой 1">
    <path class="cls-1" d="M.07,341.52c0-43.57.17-87.14-.07-130.71-.13-23.44,9.08-41.37,28.24-55.09C97.71,105.97,166.89,55.83,236.18,5.84c10.69-7.71,18.62-7.81,29.21-.18,70.11,50.56,140.19,101.14,210.29,151.71,17.31,12.48,25.94,29.47,25.95,50.7.07,89.47.04,178.94.02,268.41,0,13.54-9.46,23.63-23,23.68-53.88.17-107.76.15-161.65,0-13.25-.04-21.84-9.21-21.86-22.65-.05-32.76.05-65.52-.05-98.28-.07-22.32-13.11-39.97-33.32-45.51-29.53-8.09-57.93,12.94-58.22,43.58-.31,32.76-.08,65.52-.09,98.28,0,16.24-8.33,24.64-24.49,24.65-51.39.01-102.77.01-154.16,0-16.4,0-24.73-8.43-24.73-25.01,0-44.57,0-89.14,0-133.71ZM458.96,458.47v-5.75c0-80.83-.07-161.66.11-242.5.02-8.71-3.26-14.75-10.16-19.75-65.08-47.03-130.08-94.16-195.05-141.35-2.56-1.86-4.22-2.06-6.9-.13-65.39,47.17-130.84,94.25-196.31,141.3-6.15,4.42-9.04,10.06-9.03,17.77.12,81.33.07,162.66.07,243.99,0,1.75,0,3.5,0,5.28h121.36c0-2.19,0-4.14,0-6.1.1-26.61-.75-53.26.5-79.82,2.45-52.07,54.27-90.58,105.03-79.02,40.98,9.33,68.6,43.81,68.96,86.38.2,24.61.04,49.23.04,73.85,0,1.9,0,3.81,0,5.84h121.37Z"/>
  </g>
</svg>