<?xml version="1.0" encoding="utf-8"?>
<!-- Generator: Adobe Illustrator 28.3.0, SVG Export Plug-In . SVG Version: 6.00 Build 0)  -->
<svg version="1.1" id="_Слой_2" xmlns="http://www.w3.org/2000/svg" xmlns:xlink="http://www.w3.org/1999/xlink" x="0px"
	 y="0px" viewBox="0 0 445 511" style="enable-background:new 0 0 445 511;" xml:space="preserve">
<style type="text/css">
	.st0{fill:#FFFFFF;}
</style>
<g id="_Слой_1-2">
	<g id="UIAoxj.tif">
		<g>
			<path class="st0" d="M310.3,0c1.2,0.5,2.4,1,3.6,1.5c11,4.2,17.2,15,15.3,26.7c-1.8,11-11.6,19.5-23.1,19.6
				c-15,0.2-29.9,0.1-44.9,0.1c-59.4,0-118.7,0-178.1,0c-22,0-35.2,13.1-35.2,35c0,115.1,0,230.2,0,345.3c0,21.9,13.2,35,35.1,35
				c73.8,0,147.6,0,221.5,0c17.4,0,29.1,15.5,23.8,31.5c-3.2,9.6-11.9,16.2-22.2,16.4c-9.1,0.2-18.3,0-27.4,0c-66,0-132,0.1-198,0
				c-39.3,0-71.4-26.4-79.1-64.9c-1.1-5.7-1.5-11.6-1.5-17.3C0,313.3,0,197.9,0,82.5C0,39.8,27,7.9,69,0.8c0.6-0.1,1.2-0.5,1.8-0.8
				C150.6,0,230.4,0,310.3,0z"/>
			<path class="st0" d="M445,259.5c-1.9,7.2-6.5,12.5-11.7,17.6c-36,35.8-71.8,71.7-107.6,107.6c-6.4,6.5-13.8,9.9-22.9,8.2
				c-9-1.7-15.4-7.1-18.3-15.8c-2.9-8.7-1.2-16.8,4.9-23.7c2.1-2.4,4.4-4.5,6.6-6.8c20.8-20.8,41.6-41.6,62.4-62.5
				c1.2-1.2,2.4-2.6,4.4-4.7c-2.8,0-4.5,0-6.3,0c-60.2,0-120.4,0-180.6,0c-13.5,0-23.8-8.8-25.2-21.4c-1.5-13.9,9.4-26.2,23.6-26.4
				c14.1-0.2,28.3-0.1,42.4-0.1c46.6,0,93.1,0,139.7,0h6.3c-1.9-2.1-3-3.4-4.2-4.6c-22.6-22.6-45.2-45.1-67.7-67.8
				c-10.4-10.5-10.3-26.1,0.1-35.4c9.2-8.3,23.1-8.3,32.2,0.2c6.5,6.1,12.8,12.6,19.1,19c30.3,30.3,60.6,60.7,91.1,91
				c5.1,5.1,9.8,10.4,11.7,17.6L445,259.5L445,259.5z"/>
		</g>
	</g>
</g>
</svg>
