<?xml version="1.0" encoding="utf-8"?>
<!-- Generator: Adobe Illustrator 28.3.0, SVG Export Plug-In . SVG Version: 6.00 Build 0)  -->
<svg version="1.1" id="_Слой_2" xmlns="http://www.w3.org/2000/svg" xmlns:xlink="http://www.w3.org/1999/xlink" x="0px"
	 y="0px" viewBox="0 0 1239.1 319.8" style="enable-background:new 0 0 1239.1 319.8;" xml:space="preserve">
<style type="text/css">
	.st0{fill:#212AD5;}
	.st1{fill:#FFFFFF;}
	.st2{font-family:'Roboto-Bold';}
	.st3{font-size:264.13px;}
</style>
<g id="_Слой_1-2">
	<g>
		<circle class="st0" cx="159.9" cy="159.9" r="159.9"/>
		<g>
			<path class="st1" d="M161.4,128.1l-29.8,53.7c-3.4,6.2-12.3,6.2-15.8,0L86,128.1c-1.5-2.7-1.5-6,0-8.7l29.8-53.7
				c3.4-6.2,12.3-6.2,15.8,0l29.8,53.7C162.9,122.1,162.9,125.4,161.4,128.1z"/>
			<path class="st1" d="M233.6,200.4l-29.8,53.7c-3.4,6.2-12.3,6.2-15.8,0l-29.8-53.7c-1.5-2.7-1.5-6,0-8.7L188,138
				c3.4-6.2,12.3-6.2,15.8,0l29.8,53.7C235.1,194.4,235.1,197.7,233.6,200.4z"/>
		</g>
	</g>
	<text transform="matrix(1 0 0 1 354.29 234.07)" class="st0 st2 st3">ratesdu</text>
</g>
</svg>
