<?xml version="1.0" encoding="UTF-8"?>
<svg id="_Слой_2" data-name="Слой 2" xmlns="http://www.w3.org/2000/svg" viewBox="0 0 1147.97 319.8">
  <defs>
    <style>
      .cls-1 {
        font-family: Roboto-Bold, Roboto;
        font-size: 264.13px;
        font-weight: 700;
      }

      .cls-1, .cls-2 {
        fill: #212ad5;
      }

      .cls-2, .cls-3 {
        stroke-width: 0px;
      }

      .cls-3 {
        fill: #fff;
      }
    </style>
  </defs>
  <g id="_Слой_1-2" data-name="Слой 1">
    <g>
      <circle class="cls-2" cx="159.9" cy="159.9" r="159.9"/>
      <g>
        <path class="cls-3" d="M161.4,128.1l-29.8,53.7c-3.4,6.2-12.3,6.2-15.8,0l-29.8-53.7c-1.5-2.7-1.5-6,0-8.7l29.8-53.7c3.4-6.2,12.3-6.2,15.8,0l29.8,53.7c1.5,2.7,1.5,6,0,8.7Z"/>
        <path class="cls-3" d="M233.6,200.4l-29.8,53.7c-3.4,6.2-12.3,6.2-15.8,0l-29.8-53.7c-1.5-2.7-1.5-6,0-8.7l29.8-53.7c3.4-6.2,12.3-6.2,15.8,0l29.8,53.7c1.5,2.7,1.5,6,0,8.7Z"/>
      </g>
    </g>
    <text class="cls-1" transform="translate(354.29 234.07)"><tspan x="0" y="0">mysdu</tspan></text>
  </g>
</svg>