<?xml version="1.0" encoding="UTF-8"?>
<svg id="_Слой_2" data-name="Слой 2" xmlns="http://www.w3.org/2000/svg" viewBox="0 0 372.39 415.48">
  <defs>
    <style>
      .cls-1 {
        fill: #fff;
        stroke-width: 0px;
      }
    </style>
  </defs>
  <g id="_Слой_1-2" data-name="Слой 1">
    <g>
      <path class="cls-1" d="M186.17,415.34c-40.92,0-81.86-.47-122.77.13-42.87.62-66.61-36.78-63.05-69.62,3.89-35.93,22.42-64.61,51.14-86.31,22.44-16.96,48.06-25.19,76.27-25.17,38.93.03,77.87-.64,116.78.16,55.62,1.15,94.9,27.96,118.4,78.28,6.66,14.26,10.89,28.83,8.99,44.81-3.48,29.33-25.14,58.27-62.98,57.83-40.92-.47-81.85-.11-122.77-.11ZM185.59,383.39c41.09,0,82.18,0,123.28-.02,2.48,0,5.02-.01,7.44-.49,15.09-2.98,26.3-19.06,23.84-35.94-1.17-8.05-4.1-16.11-7.63-23.5-16.68-34.9-44.41-55.27-83.17-56.65-41.87-1.49-83.85-1.2-125.75-.13-42.56,1.09-77.23,28.93-90.48,73.87-6.92,23.45,8.55,42.87,32.69,42.87,39.93,0,79.86,0,119.78,0Z"/>
      <path class="cls-1" d="M287.17,101.25c.32,55.54-45.19,101.02-101.22,101.16-55.11.13-100.67-45.32-100.83-100.59C84.95,46.1,129.72.29,184.63,0c57.09-.3,102.21,44.25,102.54,101.25ZM255.24,101.39c.17-38.25-30.56-69.24-68.86-69.44-37.89-.2-69.12,30.65-69.32,68.49-.2,38.68,30.5,69.87,68.87,69.97,38.24.1,69.13-30.67,69.31-69.01Z"/>
    </g>
  </g>
</svg>