<?xml version="1.0" encoding="utf-8"?>
<!-- Generator: Adobe Illustrator 28.3.0, SVG Export Plug-In . SVG Version: 6.00 Build 0)  -->
<svg version="1.1" id="Слой_1" xmlns="http://www.w3.org/2000/svg" xmlns:xlink="http://www.w3.org/1999/xlink" x="0px" y="0px"
	 viewBox="0 0 14 11" style="enable-background:new 0 0 14 11;" xml:space="preserve">
<style type="text/css">
	.st0{fill:#FFB950;}
</style>
<path class="st0" d="M4.6,1c0.2-0.6,1.1-0.6,1.3,0l0.7,2.4C6.7,3.7,7,3.9,7.3,3.9h2.4c0.7,0,1,0.9,0.4,1.3l-2,1.4
	C7.9,6.8,7.8,7.1,7.8,7.4l0.7,2.3c0.2,0.6-0.5,1.2-1.1,0.8L5.6,9C5.4,8.8,5.1,8.8,4.8,9l-2,1.4c-0.5,0.4-1.2-0.1-1-0.8l0.7-2.3
	c0.1-0.3,0-0.6-0.2-0.8l-2-1.4C-0.2,4.7,0,3.8,0.7,3.8h2.4c0.3,0,0.6-0.2,0.7-0.5L4.6,1z"/>
</svg>
