<?xml version="1.0" encoding="UTF-8"?>
<svg id="_Слой_2" data-name="Слой 2" xmlns="http://www.w3.org/2000/svg" viewBox="0 0 212.69 212.62">
  <defs>
    <style>
      .cls-1 {
        fill: #000;
        stroke-width: 0px;
      }
    </style>
  </defs>
  <g id="_Слой_1-2" data-name="Слой 1">
    <g id="_2OYpkX.tif" data-name="2OYpkX.tif">
      <path class="cls-1" d="M106.25,126.64c-1.45,1.92-2.18,3.16-3.16,4.14-25.38,25.42-50.81,50.8-76.17,76.24-3.66,3.67-7.76,5.97-13.08,5.52-5.58-.48-9.74-3.21-12.19-8.22-2.5-5.12-2.15-10.22,1-14.99.96-1.45,2.24-2.69,3.48-3.93,25.22-25.25,50.46-50.48,75.71-75.7.99-.99,2.16-1.8,3.58-2.96-1.34-1.41-2.24-2.41-3.2-3.36C56.67,77.79,31.13,52.2,5.5,26.69.96,22.16-1.04,16.99.66,10.79,3.39.82,15.54-3.24,23.85,2.94c1.4,1.04,2.64,2.31,3.88,3.54,25.25,25.23,50.48,50.47,75.72,75.7.89.89,1.83,1.74,3.74,3.55.84-1.35,1.39-2.74,2.35-3.71,25.53-25.6,51.12-51.14,76.65-76.75,4.53-4.55,9.77-6.4,15.95-4.58,9.82,2.89,13.71,14.75,7.66,23.03-1.03,1.41-2.3,2.65-3.53,3.89-25.14,25.16-50.29,50.32-75.47,75.45-.98.98-2.25,1.66-3.39,2.48-.14.57-.27,1.15-.41,1.72,1.22.71,2.66,1.2,3.63,2.16,25.44,25.36,50.89,50.71,76.15,76.25,2.5,2.53,4.62,6.03,5.49,9.44,1.62,6.42-1.72,12.62-7.31,15.68-5.66,3.1-12.63,2.19-17.56-2.32-1.38-1.26-2.67-2.63-3.99-3.95-24.66-24.66-49.31-49.31-73.95-73.99-.9-.9-1.63-1.98-3.18-3.9Z"/>
    </g>
  </g>
</svg>